Coordinates
version=1
nRows=15
nColumns=23
inDegrees=yes

Units are S.I. units (second, meters, Newtons, ...)
Angles are in degrees.

endheader
time	pelvis_tilt	pelvis_list	pelvis_rotation	pelvis_tx	pelvis_ty	pelvis_tz	hip_flexion_r	hip_adduction_r	hip_rotation_r	knee_angle_r	knee_angle_r_beta	ankle_angle_r	subtalar_angle_r	mtp_angle_r	hip_flexion_l	hip_adduction_l	hip_rotation_l	knee_angle_l	knee_angle_l_beta	ankle_angle_l	subtalar_angle_l	mtp_angle_l
    122.00000000	    -18.20686533	     -2.62867901	     -5.89722188	      0.00260551	      1.36874659	      0.23493565	     84.59396043	      3.07685482	      5.35290942	    106.59168474	      1.86037585	     15.96903696	      0.00000000	      0.00000000	     44.42938967	     -9.36338642	     -2.21118977	     38.53935019	      0.67263855	     -6.36141433	      0.00000000	      0.00000000
    122.00888900	    -18.10825691	     -2.46809078	     -5.76486114	      0.00212418	      1.36870813	      0.23471864	     84.63342191	      2.97611618	      5.45549443	    105.52665286	      1.84178754	     16.72842628	      0.00000000	      0.00000000	     44.67345953	     -9.11223985	     -1.80412911	     40.50913748	      0.70701783	     -5.81709910	      0.00000000	      0.00000000
    122.01777800	    -18.01459263	     -2.32083343	     -5.63448111	      0.00167511	      1.36869224	      0.23449405	     84.55801712	      2.85894541	      5.52089134	    104.28005960	      1.82003038	     17.35061605	      0.00000000	      0.00000000	     45.02554017	     -8.87836592	     -1.40048843	     42.66923999	      0.74471873	     -5.25348414	      0.00000000	      0.00000000
    122.02666700	    -17.90104312	     -2.14771007	     -5.51725928	      0.00129091	      1.36872886	      0.23430519	     84.34955125	      2.72730424	      5.59626414	    102.87579210	      1.79552129	     17.88315354	      0.00000000	      0.00000000	     45.43632886	     -8.64081846	     -1.05888063	     44.97623999	      0.78498347	     -4.69238277	      0.00000000	      0.00000000
    122.03555600	    -17.78003655	     -1.98297193	     -5.40902964	      0.00097675	      1.36881381	      0.23412466	     84.01719695	      2.58184047	      5.64852667	    101.30908562	      1.76817711	     18.28267931	      0.00000000	      0.00000000	     45.91242240	     -8.41977538	     -0.73406182	     47.41059526	      0.82747099	     -4.10662673	      0.00000000	      0.00000000
    122.04444400	    -17.67235661	     -1.85824590	     -5.30068701	      0.00074795	      1.36897073	      0.23393771	     83.56837803	      2.41909297	      5.64286295	     99.56500871	      1.73773722	     18.54192064	      0.00000000	      0.00000000	     46.47359365	     -8.23625797	     -0.40987305	     49.94047575	      0.87162573	     -3.60546807	      0.00000000	      0.00000000
    122.05333300	    -17.54605268	     -1.72063137	     -5.18763353	      0.00061384	      1.36915384	      0.23382138	     82.99806985	      2.22770793	      5.62540015	     97.69000958	      1.70501231	     18.66778281	      0.00000000	      0.00000000	     47.06249425	     -8.05114606	     -0.13584530	     52.52993801	      0.91682037	     -3.11851607	      0.00000000	      0.00000000
    122.06222200	    -17.42792716	     -1.59987786	     -5.06754041	      0.00055673	      1.36941722	      0.23369596	     82.30417970	      2.00069937	      5.57447984	     95.64677724	      1.66935118	     18.66024843	      0.00000000	      0.00000000	     47.71460356	     -7.87567339	      0.15137730	     55.16507292	      0.96281215	     -2.66643334	      0.00000000	      0.00000000
    122.07111100	    -17.29721745	     -1.44351246	     -4.93037186	      0.00059069	      1.36971070	      0.23360319	     81.49792653	      1.72408964	      5.53428747	     93.47952103	      1.63152543	     18.50497043	      0.00000000	      0.00000000	     48.38926038	     -7.66630465	      0.39276139	     57.81566432	      1.00907370	     -2.25976223	      0.00000000	      0.00000000
    122.08000000	    -17.16654365	     -1.26551680	     -4.76364543	      0.00071081	      1.37002173	      0.23355032	     80.58355663	      1.39185315	      5.48927611	     91.19339161	      1.59162494	     18.22195687	      0.00000000	      0.00000000	     49.09998497	     -7.42551108	      0.62015523	     60.46684313	      1.05534550	     -1.90702968	      0.00000000	      0.00000000
    122.08888900	    -17.01011105	     -0.67799286	     -4.59282790	      0.00089247	      1.37022759	      0.23374332	     79.64352099	      0.91547774	      5.81818983	     88.92367986	      1.55201100	     18.04632596	      0.00000000	      0.00000000	     49.77606228	     -6.89336974	      0.49054469	     62.99541565	      1.09947742	     -2.03050894	      0.00000000	      0.00000000
    122.09777800	    -16.91144042	     -0.83210565	     -4.33372022	      0.00114510	      1.37069004	      0.23344772	     78.44712078	      0.51548337	      5.33029486	     86.28300617	      1.50592255	     17.33865599	      0.00000000	      0.00000000	     50.64559416	     -6.83226169	      1.01343775	     65.74295252	      1.14743098	     -1.30923759	      0.00000000	      0.00000000
    122.10666700	    -16.79760361	     -0.56866786	     -4.06280141	      0.00145459	      1.37103875	      0.23345809	     77.23403014	     -0.02108817	      5.21760545	     83.67963486	      1.46048515	     16.82606236	      0.00000000	      0.00000000	     51.48109212	     -6.47158434	      1.18791834	     68.32712245	      1.19253326	     -1.12458963	      0.00000000	      0.00000000
    122.11555600	    -16.67437109	     -0.15835747	     -3.74956358	      0.00179606	      1.37123680	      0.23353007	     75.96448203	     -0.66745909	      5.19938602	     81.06660860	      1.41487923	     16.22857437	      0.00000000	      0.00000000	     52.34597126	     -5.99009845	      1.24020985	     70.90736493	      1.23756698	     -1.00645634	      0.00000000	      0.00000000
    122.12444400	    -16.59172617	      0.13258412	     -3.41430987	      0.00221115	      1.37160240	      0.23361147	     74.56969845	     -1.30686018	      5.00199921	     78.26065393	      1.36590609	     15.56104007	      0.00000000	      0.00000000	     53.27954785	     -5.58152002	      1.40139154	     73.41792571	      1.28138453	     -0.80548537	      0.00000000	      0.00000000
